<svg  viewBox="0 0 141.73 141.73" xmlns="http://www.w3.org/2000/svg" xmlns:xlink="http://www.w3.org/1999/xlink" x="0px" y="0px"
  style="enable-background:new 0 0 141.73 141.73;" xml:space="preserve">
<g>
	<path d="M83.27,113.01c-10.89,0-21.79-0.02-32.68,0.01c-4.06,0.01-7.33-1.5-9.9-4.65c-8.14-9.99-16.3-19.96-24.44-29.95
		c-3.81-4.68-3.81-10.44,0.01-15.13c8.16-10.02,16.35-20.02,24.52-30.04c2.48-3.04,5.66-4.55,9.58-4.55
		c21.95,0.01,43.89,0,65.84,0.01c7.15,0,12.14,4.98,12.14,12.1c0.01,20.03,0.01,40.06,0,60.09c0,7.12-5,12.09-12.15,12.1
		C105.21,113.02,94.24,113.01,83.27,113.01z M83.3,105.35c10.9,0,21.79,0,32.69,0c3.2,0,4.69-1.48,4.69-4.68
		c0-19.88,0-39.75,0-59.63c0-3.19-1.48-4.66-4.7-4.66c-21.75,0-43.5,0.01-65.25-0.02c-1.78,0-3.11,0.59-4.24,1.98
		c-8,9.85-16.04,19.66-24.06,29.5c-1.86,2.28-1.86,3.78,0.01,6.07c7.99,9.8,16.01,19.59,23.98,29.41c1.15,1.42,2.49,2.06,4.33,2.06
		C61.59,105.32,72.45,105.35,83.3,105.35z"/>
	<path d="M86.06,65.61c4.66-4.66,9.06-9.06,13.44-13.47c1.03-1.03,2.21-1.57,3.67-1.28c1.44,0.29,2.44,1.15,2.9,2.55
		c0.49,1.51,0.12,2.85-0.98,3.96c-3.34,3.37-6.7,6.72-10.06,10.08c-1.1,1.1-2.23,2.17-3.44,3.35c0.36,0.38,0.64,0.69,0.94,0.99
		c4.17,4.18,8.35,8.35,12.52,12.53c1.14,1.14,1.53,2.51,1,4.06c-0.52,1.5-1.64,2.33-3.2,2.52c-1.36,0.17-2.46-0.4-3.42-1.36
		c-4.05-4.07-8.12-8.13-12.18-12.19c-0.31-0.31-0.57-0.67-0.95-1.11c-0.41,0.39-0.73,0.67-1.02,0.96
		c-4.15,4.14-8.29,8.29-12.44,12.44c-1.18,1.18-2.56,1.6-4.15,1.08c-1.41-0.46-2.25-1.48-2.52-2.93c-0.27-1.46,0.31-2.63,1.34-3.65
		c4.1-4.08,8.18-8.18,12.27-12.27c0.3-0.31,0.6-0.62,0.94-0.99c-0.33-0.36-0.62-0.68-0.92-0.98c-3.98-3.98-7.95-7.96-11.93-11.93
		c-2.07-2.07-2.29-4.27-0.61-5.98c1.69-1.71,3.94-1.51,5.98,0.53c3.98,3.98,7.96,7.95,11.93,11.94
		C85.48,64.75,85.7,65.14,86.06,65.61z"/>
</g>
</svg>
