<svg x="142px" y="142px"
	 viewBox="0 0 141.73 141.73"  xmlns="http://www.w3.org/2000/svg" xmlns:xlink="http://www.w3.org/1999/xlink"  style="enable-background:new 0 0 141.73 141.73;" xml:space="preserve">
  <g>
    <path d="M70.84,28.54c23.12-0.1,42.24,18.88,42.34,42.02c0.1,23.51-18.75,42.51-42.28,42.63C47.76,113.3,28.59,94.2,28.55,70.98
      C28.5,47.6,47.39,28.64,70.84,28.54z M71,36.25c-19.16-0.03-34.7,15.44-34.74,34.61C36.2,90,51.73,105.45,71.06,105.48
      c18.77,0.03,34.38-15.56,34.42-34.38C105.52,51.85,90.12,36.29,71,36.25z"/>
    <path d="M65.55,70.97c-1.4-1.4-2.61-2.6-3.82-3.8c-1.66-1.66-3.33-3.3-4.97-4.97c-1.62-1.66-1.64-4.01-0.07-5.56
      c1.54-1.51,3.87-1.49,5.49,0.11c2.65,2.61,5.28,5.26,7.9,7.9c0.23,0.23,0.4,0.52,0.66,0.86c0.38-0.35,0.61-0.57,0.84-0.79
      c2.68-2.67,5.34-5.36,8.03-8.02c1.25-1.23,2.9-1.49,4.4-0.78c1.44,0.69,2.31,2.2,2.17,3.82c-0.09,1.04-0.59,1.86-1.32,2.59
      c-2.6,2.58-5.18,5.18-7.78,7.77c-0.23,0.23-0.51,0.42-0.83,0.68c0.34,0.35,0.55,0.59,0.78,0.82c2.65,2.66,5.31,5.3,7.96,7.97
      c1.08,1.09,1.48,2.38,1.04,3.88c-0.43,1.45-1.42,2.35-2.88,2.68c-1.44,0.32-2.65-0.16-3.68-1.19c-2.61-2.62-5.22-5.23-7.84-7.84
      c-0.23-0.23-0.47-0.45-0.76-0.73c-0.27,0.25-0.51,0.46-0.73,0.69c-2.68,2.67-5.33,5.37-8.04,8.02c-2.17,2.12-5.61,1.28-6.44-1.55
      c-0.46-1.55-0.01-2.88,1.14-4.02c2.62-2.6,5.23-5.22,7.85-7.83C64.88,71.42,65.17,71.25,65.55,70.97z"/>
  </g>
</svg>
