<svg xmlns="http://www.w3.org/2000/svg" viewBox="0 0 350 68.698">
  <defs>
    <style>
      .cls-1 {
        fill: #fff;
      }

      .cls-2 {
        fill: #f7cf2d;
      }
    </style>
  </defs>
  <g id="logo" transform="translate(0 -0.052)">
    <g id="Group_25" data-name="Group 25" transform="translate(0 12.326)">
      <path id="Path_30" data-name="Path 30" class="cls-1" d="M21.835,71.139a14.866,14.866,0,0,1-6.345,1.094c-9.846,0-15.49-8.1-15.49-21.4C0,34.251,8.752,28.3,16.453,28.3A11.859,11.859,0,0,1,22.1,29.394l-1.269,5.82a7.98,7.98,0,0,0-4.113-.875c-4.682,0-9.452,4.288-9.452,16.059,0,11.6,4.332,15.753,9.539,15.753a12.654,12.654,0,0,0,4.245-.788Z" transform="translate(0 -28.212)"/>
      <path id="Path_31" data-name="Path 31" class="cls-1" d="M72.965,72.252c-8.577,0-12.865-9.1-12.865-22.142C60.1,37.2,64.957,28.1,73.665,28.1c9.014,0,12.6,9.846,12.6,21.485,0,16.278-5.689,22.667-13.259,22.667Zm.394-5.951c4.42,0,5.82-7.745,5.82-16.365,0-7.789-1.269-15.884-5.907-15.884-4.551,0-6.126,8.008-6.082,16.015-.044,8.533,1.532,16.278,6.082,16.278h.088Z" transform="translate(-33.801 -28.1)"/>
      <path id="Path_32" data-name="Path 32" class="cls-1" d="M138.444,29.2h17.722v5.951h-10.9V48.016h10.2V53.7h-10.2V72.345H138.4V29.2Z" transform="translate(-77.839 -28.719)"/>
      <path id="Path_33" data-name="Path 33" class="cls-1" d="M198.6,29.2h17.722v5.951h-10.9V48.016h10.2V53.7h-10.2V72.345H198.6Z" transform="translate(-111.697 -28.719)"/>
      <path id="Path_34" data-name="Path 34" class="cls-1" d="M275.809,52.7H265.57v13.7h11.64v5.951H258.7V29.2h17.722v5.951h-10.9V47.009h10.239V52.7Z" transform="translate(-145.498 -28.719)"/>
      <path id="Path_35" data-name="Path 35" class="cls-1" d="M336.609,52.7H326.37v13.7h11.64v5.951H319.5V29.2h17.722v5.951h-10.9V47.009h10.239V52.7Z" transform="translate(-179.693 -28.719)"/>
      <path id="Path_36" data-name="Path 36" class="cls-1" d="M407.689,72.289,399.9,29.144h7.089l2.757,18.816c.788,5.163,1.269,8.839,1.794,14.09h.175c.569-5.382,1.531-8.8,2.494-14.178l3.5-18.772h5.645l3.326,18.553c.875,4.945,1.75,8.533,2.319,14.353h.131c.656-5.907,1.269-9.32,1.925-14.221L433.812,29.1h6.739l-7.92,43.145h-6.958l-3.282-17.153c-.788-4.288-1.488-7.876-2.057-12.952H420.2c-.7,5.076-1.4,8.533-2.363,13l-3.5,17.109h-6.651Z" transform="translate(-224.912 -28.662)"/>
      <path id="Path_37" data-name="Path 37" class="cls-1" d="M507.97,61.143l-2.319,11.2H499L508.583,29.2h8.008l8.883,43.145h-6.651l-2.319-11.2Zm7.876-5.382-1.794-9.933c-.569-2.8-1.138-6.782-1.619-9.8h-.175c-.438,3.019-1.094,7.176-1.619,9.846l-1.925,9.846h7.133Z" transform="translate(-280.648interfaceApp.8.719)"/>
      <path id="Path_38" data-name="Path 38" class="cls-1" d="M571.652,72.345V55.061L562.2,29.2h7.22l3.326,10.5c.963,2.888,1.925,6.214,2.669,9.452h.131c.7-3.194,1.619-6.476,2.582-9.671L581.147,29.2h7.089l-9.714,25.6V72.345Z" transform="translate(-316.193 -28.719)"/>
    </g>
    <g id="Group_26" data-name="Group 26" transform="translate(281.299 0.053)">
      <path id="Path_39" data-name="Path 39" class="cls-2" d="M716.607,30.315a5.907,5.907,0,1,0-5.907-5.907A5.911,5.911,0,0,0,716.607,30.315Z" transform="translate(-681.011 -10.428)"/>
      <path id="Path_40" data-name="Path 40" class="cls-2" d="M735.533,108.521c-2.538-1.4-5.076-3.369-5.295-8.927a16.086,16.086,0,0,0-.481-3.894,15.436,15.436,0,0,1-6.257,6.039,25.758,25.758,0,0,0,3.238,4.595c2.582,2.844,5.907,4.376,8.226,4.376C735.446,110.665,735.971,108.784,735.533,108.521Z" transform="translate(-688.21 -53.847)"/>
      <path id="Path_41" data-name="Path 41" class="cls-2" d="M714.238,66.617c0-.088.044-.219.044-.306V59c2.888,1.75,3.851,6.257,4.638,8.27.044.131.481.263.831.263.306,0,.656-.088.744-.263.963-3.194-.219-15.009-9.1-16.584a15.191,15.191,0,0,0-3.238-.131c-3.807.35-4.77,2.888-4.813,4.595V66a3.331,3.331,0,0,0,.131.919,21.3,21.3,0,0,0-5.295,7.133c-1.182,2.625-1.269,9.8-.219,11.683.175.306.613.306,1.094.306.525,0,1.138-.088,1.181-.306.306-3.151.525-7.614,6.826-10.546C712.838,72.393,713.975,68.192,714.238,66.617Z" transform="translate(-673.435 -28.439)"/>
      <path id="Path_42" data-name="Path 42" class="cls-2" d="M684.964,35.713a1.356,1.356,0,0,0,0-2.713h-8.708a1.356,1.356,0,0,0,0,2.713Z" transform="translate(-660.877 -18.583)"/>
      <path id="Path_43" data-name="Path 43" class="cls-2" d="M690.14,50.6a29.993,29.993,0,0,1-5.251,1.181l1.663-9.189a.641.641,0,0,0-.656-.788h-8.358a.641.641,0,0,0-.656.788l1.75,9.671c0,.044.044.044.044.088-.35,0-.7.044-1.094.044-.262,0-.35.481-.35.919a1.1,1.1,0,0,0,.35.963c2.844,1.313,12.6.656,12.6.656V50.6Z" transform="translate(-661.982 -23.532)"/>
      <path id="Path_44" data-name="Path 44" class="cls-2" d="M710.086,24.534a34.333,34.333,0,1,0-23.017,42.751A34.327,34.327,0,0,0,710.086,24.534ZM684.049,61.772a29.494,29.494,0,1,1,19.779-36.713A29.559,29.559,0,0,1,684.049,61.772Z" transform="translate(-642.853 -0.053)"/>
    </g>
  </g>
</svg>
