
<svg x="0px" y="0px" width="42px" height="42px" viewBox="-0.5 0.5 42 42" xmlns="http://www.w3.org/2000/svg">
    <path d="M26.731,17.5H39.5V4.91l-4.335,4.385c-0.34-0.399-0.651-0.79-1.021-1.17c-7.48-7.5-19.572-7.5-27.042,0
    c-7.479,7.5-7.465,19.661,0.015,27.161c7.471,7.5,19.597,7.5,27.078,0c0,0,2.505-2.939,3.334-4.51l-4.129-1.84
    c-0.609,1.068-2.39,3.148-2.39,3.148c-5.719,5.74-14.979,5.74-20.689,0c-5.72-5.729-5.719-15.031,0-20.761
    c5.71-5.74,14.971-5.74,20.689,0c0.381,0.38,0.729,0.574,1.061,0.984L26.731,17.5z"
    fill="#fff"/>
</svg>
